<svg width="960" height="960" viewBox="0 0 960 960" fill="none" xmlns="http://www.w3.org/2000/svg">
<path d="M175.601 555.6C133.57 555.6 99.5076 521.532 99.5076 479.509C99.5076 437.485 133.57 403.449 175.601 403.449C190.415 403.449 204.246 407.673 215.93 414.994L175.601 479.509L251.525 435.686C243.276 422.548 231.445 411.228 217.14 402.637C198.935 391.742 173.612 385 145.61 385C105.667 385 70.6248 399.509 51.0825 421.238C36.614 437.3 28 457.516 28 479.508C28 501.516 36.614 521.746 51.0825 537.82C70.6756 559.576 105.196 574 144.48 574C183.759 574 218.269 559.564 237.875 537.82C238.949 536.623 239.988 535.414 240.971 534.16L238.011 523.068C224.236 542.722 201.421 555.6 175.601 555.6Z" fill="white"/>
<path d="M427.32 569.426L395.454 450.594C390.335 431.392 372.843 417.278 352.017 417.278C346.615 417.278 341.44 418.242 336.637 419.989L268.035 444.925H338.592L350.649 489.936C338.954 479.874 323.721 473.752 307.043 473.752C273.922 473.752 247.107 495.938 247.107 523.305C247.107 550.675 273.922 572.893 307.043 572.893C330.886 572.893 351.971 561.225 364.978 543.299L371.972 569.426H427.32ZM330.117 550.968C314.84 550.968 302.455 538.6 302.455 523.305C302.455 508.033 314.84 495.653 330.117 495.653C345.395 495.653 357.791 508.033 357.791 523.305C357.791 538.6 345.395 550.968 330.117 550.968Z" fill="white"/>
<path d="M557.247 417.298C553.066 417.298 549.111 418.222 545.586 419.877L501.538 440.397C499.357 427.289 487.967 417.298 474.226 417.298C470.068 417.298 466.101 418.222 462.531 419.877L408.754 444.925H446.564V569.427H501.911V458.776C501.911 451.141 508.092 444.926 515.754 444.926C523.37 444.926 529.596 451.141 529.596 458.776V569.427H584.921V444.925C584.921 429.657 572.525 417.298 557.247 417.298Z" fill="white"/>
<path d="M904.338 417.298C900.146 417.298 896.168 418.222 892.586 419.877L848.584 440.397C846.414 427.289 835.024 417.298 821.283 417.298C817.125 417.298 813.158 418.222 809.576 419.877L755.822 444.925H793.621V569.427H848.957V458.776C848.957 451.141 855.149 444.926 862.811 444.926C870.45 444.926 876.631 451.141 876.631 458.776V569.427H932.001V444.925C932.001 429.657 919.593 417.298 904.338 417.298Z" fill="white"/>
<path d="M764.772 495.652C764.772 538.927 729.685 574 686.406 574C643.093 574 607.984 538.927 607.984 495.652C607.984 452.388 643.093 417.298 686.406 417.298C729.685 417.298 764.772 452.389 764.772 495.652ZM689.65 441.078C687.186 431.858 677.705 426.385 668.485 428.864C659.275 431.332 653.772 440.814 656.247 450.033L683.129 550.223C685.615 559.451 695.073 564.919 704.294 562.479C713.515 559.982 718.996 550.505 716.521 541.288L689.65 441.078Z" fill="white"/>
</svg>
