<?xml version="1.0" encoding="UTF-8"?>
<svg width="64px" height="64px" viewBox="0 0 64 64" version="1.1" xmlns="http://www.w3.org/2000/svg" xmlns:xlink="http://www.w3.org/1999/xlink">
    <title>alarm_water</title>
    <g id="alarm_water" stroke="none" stroke-width="1" fill="none" fill-rule="evenodd">
        <path d="M32,8 C37.575427,8 49,26.6110356 49,38.4166667 C49,48.1109616 41.4062732,56 32,56 C22.5937268,56 15,48.1109616 15,38.4166667 C15,26.6110356 26.424573,8 32,8 Z M31.999,12.09 L31.9129066,12.1456165 C31.842019,12.1916165 31.7642327,12.2454095 31.6805368,12.3068537 C31.1770183,12.6765051 30.5510944,13.254206 29.8587697,13.9980359 C28.3348551,15.6353216 26.6380893,17.9091204 25.0831678,20.4421429 C21.3393371,26.5409762 19,33.0556524 19,38.4166667 C19,45.9352464 24.8377307,52 32,52 C39.1622693,52 45,45.9352464 45,38.4166667 C45,33.0556524 42.6606629,26.5409762 38.9168322,20.4421429 C37.3619107,17.9091204 35.6651449,15.6353216 34.1412303,13.9980359 C33.4489056,13.254206 32.8229817,12.6765051 32.3194632,12.3068537 C32.2357673,12.2454095 32.157981,12.1916165 32.0870934,12.1456165 L31.999,12.09 Z M30.5136346,17.5129361 L30.5262291,17.5 C30.7951285,17.2311006 31.2311006,17.2311006 31.5,17.5 C31.7981437,17.794427 31.8799094,18.2366912 31.7118357,18.6144736 L31.6244192,18.8109169 C30.977671,20.2950452 30.1028646,22.6914063 29,26 C27.7607422,29.7177734 27.0973943,33.7235019 27.0100162,38.0171863 C27.0006304,38.5632254 26.5549083,39.0007499 26.0087891,39 L22.9689957,38.9980969 C22.417762,38.9640399 21.9985075,38.489568 22.0325645,37.9383344 L22.0628412,37.5107959 C22.3104091,34.4948539 23.289462,30.9912553 25,27 C26.7573932,22.8994159 28.5147864,19.8283087 30.2721796,17.7866785 L30.5136346,17.5129361 Z" id="Shape" fill="#000000" fill-rule="nonzero"></path>
    </g>
</svg>